<svg width="128" height="197" xmlns="http://www.w3.org/2000/svg">
 <g>
  <title>Layer 1</title>
  <g id="#7db05dfa" stroke="null">
   <path fill="#7db05d" opacity="0.98" d="m85.0564,0l1.86065,0l-3.29759,0.93954c5.32404,2.3949 13.20878,3.27917 14.8852,10.05857c-5.98724,17.83277 -14.75625,34.65231 -21.14878,52.37454c8.52952,0.09211 17.07745,-0.57109 25.58855,0.09211c3.64761,0.11053 6.13462,3.53708 6.88993,6.81624c3.8871,15.3826 6.85309,31.02312 11.67973,46.16624c3.48181,10.35332 4.12659,21.70145 1.75012,32.36795c-7.31365,24.81481 -33.39959,41.37644 -58.82234,40.32637c-20.59611,1.38167 -41.72647,-7.94 -53.90359,-24.7227c-5.7846,-7.29522 -7.55314,-16.6169 -10.51912,-25.2201c-0.03684,-2.00803 -0.01842,-4.01606 0.03684,-6.04251c5.96882,-20.26451 11.14548,-40.76851 15.75105,-61.40146c0.71847,-3.99763 3.5555,-8.45583 8.08738,-8.36372c9.85592,-0.4974 19.73026,0.11053 29.6046,-0.14738c6.26358,-15.2168 12.71137,-30.35992 18.95653,-45.57672c2.80019,-6.74255 4.82664,-14.97731 12.60084,-17.66697m-4.67926,8.05054c0.9948,1.58432 2.13698,3.07652 3.37128,4.47661c-6.42938,17.37221 -14.7194,34.00753 -20.79875,51.49027c1.17903,-0.42371 3.53708,-1.27114 4.7161,-1.71327c5.25035,-8.78743 7.95843,-18.86442 12.36135,-28.1124c3.13179,-6.24515 4.36608,-13.61407 9.15587,-18.90126c0.79216,-1.80538 1.60274,-3.61077 2.28436,-5.47142c-3.73972,-0.36845 -7.46102,-0.81058 -11.09021,-1.76854m-55.78267,64.27534c-1.06849,4.36608 -1.91592,8.78743 -2.57912,13.2272c27.50446,0.01842 54.99051,-0.09211 82.49497,0.05527c-0.86585,-4.36608 -1.86065,-8.69532 -2.70808,-13.0614c-25.73593,-0.38687 -51.47185,-0.1658 -77.20778,-0.22107m-5.17666,22.08831c-2.41332,8.97165 -4.32924,18.07226 -7.2768,26.91495c-1.62116,4.82664 -2.50543,9.91119 -2.35805,15.03258c-0.55267,15.67736 10.74019,29.12563 23.54367,36.80772c20.19082,12.02975 47.28999,10.20594 65.78596,-4.25555c12.93244,-9.81908 21.38827,-27.63342 15.95369,-43.67923c-3.13179,-10.04014 -6.07935,-20.13555 -7.92158,-30.5073c-29.23616,-0.6632 -58.49074,-0.05527 -87.7269,-0.31318l0.00001,0.00001z" id="svg_13" stroke="null"/>
   <path fill="#7db05d" opacity="0.98" d="m101.85752,133.19309c3.00283,-1.03165 6.57675,1.82381 5.67406,5.02928c-3.15021,19.52762 -22.3278,33.43644 -41.48698,33.897c-3.02125,-0.60794 -3.42654,-4.47661 -2.5607,-6.87151c1.63958,-1.87907 4.25555,-1.95276 6.50307,-2.43174c13.00613,-1.75012 25.57013,-11.18232 28.49927,-24.37268c0.92111,-1.69485 0.81058,-5.25035 3.37128,-5.25035z" id="svg_14" stroke="null"/>
  </g>
 </g>

</svg>